<svg xmlns="http://www.w3.org/2000/svg" shape-rendering="geometricPrecision" text-rendering="geometricPrecision" image-rendering="optimizeQuality" fill-rule="evenodd" clip-rule="evenodd" viewBox="0 0 512 354.34"><path fill-rule="nonzero" d="M394.21 350.98 255.99 221.24 117.78 350.99c-4.96 4.67-12.77 4.43-17.44-.54L3.45 249.62c-4.73-4.91-4.58-12.72.34-17.45L247.54 3.35c4.78-4.49 12.2-4.44 16.91 0l243.66 228.73c4.97 4.67 5.21 12.48.54 17.45l-97.09 101.02c-4.69 4.88-12.43 5.06-17.35.43zM264.45 195.32l137.77 129.33 79.89-83.13L255.99 29.27 29.89 241.52l79.88 83.13 137.77-129.33c4.71-4.44 12.13-4.5 16.91 0z"/></svg>